<svg width="457" height="223" xmlns="http://www.w3.org/2000/svg"><g fill="none"><path d="M228.164 222.394c-75.678 0-151.356 0-227.034.016-.73 0-.896-.167-.896-.896.016-73.457.016-146.915 0-220.38 0-.73.166-.896.896-.896 151.356.016 302.704.016 454.06 0 .737 0 .904.166.904.896-.024 73.457-.024 146.923 0 220.38 0 .737-.167.896-.896.896-75.678-.016-151.356-.016-227.034-.016zm.04-213.963c-69.35 0-138.698 0-208.047-.016-1.547 0-3.006.135-4.466.77-1.641.713-3.109 1.64-4.267 2.965-1.705 1.967-2.45 4.283-2.442 6.916.024 19.217.008 38.426.008 57.643 0 27.759.008 55.517-.016 83.276 0 4.18 1.72 7.344 5.25 9.454 1.38.824 2.943 1.388 4.616 1.395 2.871.008 5.742.008 8.613.008 111.233 0 222.458 0 333.698.008h42.765c10.96 0 21.929-.031 32.882.016 1.76.008 3.442-.365 4.87-1.174 3.513-1.998 5.654-4.98 5.646-9.24-.016-26.259-.016-52.519-.016-78.77 0-20.978.016-41.955.008-62.925 0-1.27-.095-2.53-.65-3.72-1.19-2.506-2.855-4.528-5.504-5.607-1.364-.547-2.673-1.023-4.212-1.023-69.579.024-139.158.024-208.737.024zm-49.736 170.398h-132.1c-12.039 0-24.07-.008-36.11-.008-1.22 0-1.403.182-1.403 1.42 0 7.534.024 15.069-.008 22.603-.008 2.316.444 4.434 1.824 6.337 2.078 2.871 4.806 4.632 8.375 4.632 79.85.024 159.7.024 239.541.024 29.29 0 58.587 0 87.876.015.92 0 1.602-.364 2.229-.999a3695.94 3695.94 0 0115.782-15.759c.556-.547.54-.975.04-1.49-1.673-1.69-3.347-3.38-5.028-5.069-3.236-3.252-6.527-6.448-9.708-9.763-1.269-1.324-2.53-1.983-4.473-1.983-55.612.056-111.225.04-166.837.04zm236.765 34.865c7.106 0 14.213-.016 21.319.008a11.88 11.88 0 003.45-.508c4.029-1.213 7.344-5.464 7.257-9.692-.159-7.526-.04-15.06-.04-22.603 0-1.975.008-1.975-1.911-1.92-.19.009-.397.009-.587.009-12.983-.008-25.95.008-38.934-.024-4.433-.008-8.859.166-13.292-.111-.333-.016-.69-.032-.873.301-.222.42.104.674.341.92 1.491 1.507 2.983 3.014 4.474 4.513 3.545 3.545 7.106 7.082 10.659 10.635.991 1 .952 1.166-.024 2.142-2.427 2.403-4.846 4.798-7.273 7.217-2.57 2.562-5.123 5.14-7.693 7.725-.293.293-.761.555-.587 1.039.175.5.714.34 1.119.34 7.534.009 15.06.009 22.595.009zm-45.754.277c2.181-.008 4.37 0 6.551-.008.619-.007 1.253-.023 1.737-.5 1.221-1.213 2.45-2.426 3.632-3.671 1.634-1.705 3.197-3.482 4.862-5.155 2.482-2.507 5.036-4.973 7.574-7.432.532-.515.547-.96.087-1.515-1.372-1.65-2.95-3.085-4.465-4.592-1.285-1.277-2.561-2.561-3.862-3.822-.944-.913-1.848-1.88-2.792-2.816-1.309-1.309-2.728-2.53-3.894-3.95-1.15-1.38-2.475-1.998-4.22-1.943-2.934.08-5.86.127-8.795.111-1.197-.008-2.395-.19-3.593.032-.658.127-.824.523-.388 1.007.523.571 1.086 1.126 1.634 1.674 1.966 1.975 3.933 3.957 5.908 5.924 1.34 1.325 2.713 2.61 4.037 3.942 1.38 1.38 2.76 2.76 4.069 4.195.785.849.698 1.166-.103 1.944a540.765 540.765 0 00-5.71 5.583c-2.087 2.086-4.133 4.211-6.219 6.305-1.03 1.04-2.11 2.03-3.14 3.07-.333.333-.81.73-.643 1.229.167.523.754.388 1.182.388 2.181.008 4.362 0 6.551 0z" fill="#FCFDFC"/><path d="M228.203 8.43c69.571 0 139.158.009 208.73-.023 1.538 0 2.847.476 4.21 1.023 2.65 1.079 4.315 3.093 5.505 5.607.555 1.182.65 2.45.65 3.72.008 20.977-.008 41.955-.008 62.925 0 26.26 0 52.519.016 78.77.008 4.26-2.133 7.242-5.647 9.24-1.435.817-3.117 1.182-4.87 1.174-10.96-.047-21.929-.016-32.881-.016h-42.765c-111.232-.008-222.465-.008-333.698-.008-2.87 0-5.742 0-8.613-.008-1.673-.007-3.236-.563-4.616-1.395-3.53-2.118-5.258-5.275-5.25-9.454.024-27.759.016-55.517.016-83.276 0-19.209.016-38.426-.008-57.643 0-2.633.737-4.949 2.443-6.916 1.157-1.324 2.625-2.252 4.266-2.966 1.46-.634 2.92-.77 4.466-.77 69.357.017 138.705.009 208.054.017zM19.165 89.7c.008 0 .008 0 0 0 .008 21.557.048 43.121-.032 64.678-.007 2.879 2.816 6.059 6.1 6.059 38.949-.056 77.89-.04 116.831-.04 4.14 0 8.288-.047 12.428.016 3.324.056 5.71-2.347 6.17-5.155.167-.991.096-2.022.096-3.03V27.758c0-1.11.071-2.228-.04-3.322-.119-1.198-.531-2.348-1.308-3.3-1.46-1.784-3.347-2.498-5.655-2.498-24.237.024-48.467.008-72.704.008-18.463 0-36.919-.016-55.382.008-3.577 0-6.504 2.625-6.496 6.456.008 21.532-.008 43.057-.008 64.59zm259.02.301c0-16.6-.008-33.199 0-49.799 0-2.886-.444-5.654-1.475-8.383-1.73-4.6-4.616-8.153-8.764-10.746-2.173-1.356-4.553-2.475-7.035-2.689-3.6-.317-7.265-.57-10.818.81-1.927.745-3.83 1.522-5.449 2.775-2.625 2.046-4.845 4.45-6.368 7.534-1.475 2.99-2.356 6.084-2.356 9.36-.031 33.428 0 66.85-.031 100.287-.008 3.3.38 6.464 1.768 9.478.88 1.935 1.967 3.735 3.442 5.29 1.364 1.451 2.776 2.815 4.465 3.91 1.484.967 3.07 1.681 4.72 2.252 2.847 1 5.82.912 8.787.904 1.84-.008 3.593-.515 5.21-1.158 2.745-1.086 5.322-2.522 7.496-4.64 2.522-2.474 4.385-5.353 5.448-8.66.698-2.173.984-4.473.984-6.82-.048-16.577-.032-33.137-.024-49.705zm32.898-71.355v.016c-4.854 0-9.724.04-14.577-.016-1.5-.016-2.808.34-4.037 1.182-2.277 1.546-3.577 5.186-2.562 7.74.722 1.824 1.92 3.268 3.91 3.918.864.278 1.729.302 2.601.294 6.456 0 12.92-.016 19.368-.016 1.427 0 1.53.27 1.245 1.618-.563 2.704-1.428 5.33-1.959 8.034-.285 1.404-.571 2.84-1.039 4.156-.975 2.736-1.285 5.639-2.371 8.32-.27.681.079 1.3-.135 1.974-1.031 3.418-2.046 6.837-2.935 10.287-.539 2.11-.96 4.25-1.538 6.353-.738 2.672-1.325 5.393-1.96 8.097-.063.278-.078.563-.182.84-.563 1.428-.848 2.943-1.19 4.434-.38 1.618-.729 3.268-1.213 4.83-.5 1.61-.65 3.276-1.134 4.878-.507 1.72-.975 3.482-1.332 5.274-.19.968-.262 2.022-.698 2.919-.746 1.554-.777 3.267-1.317 4.87-.587 1.744-.856 3.592-1.324 5.384-.635 2.475-1.404 4.934-1.96 7.432-.23 1.023-.586 1.99-.832 2.998-.73 3.03-1.491 6.051-2.189 9.089-.373 1.641-1.15 3.18-1.19 4.901 0 .246-.158.5-.222.746-.428 1.435-1.047 2.831-1.221 4.298-.373 2.966-1.34 5.774-2.15 8.605-1.157 4.125 1.864 8.36 6.1 8.32 9.85-.087 19.7.024 29.55-.048 1.246-.007 2.61-.047 3.776-.76 2.41-1.476 3.426-3.617 3.188-6.425-.27-3.252-2.712-5.687-5.9-5.774-4.466-.127-8.93-.032-13.396-.032-2.514 0-5.028-.008-7.535 0-.721 0-1.26-.182-1.054-1.086.388-1.61.793-3.212 1.19-4.822.792-3.14 1.57-6.29 2.379-9.43a354.383 354.383 0 011.689-6.496 316.347 316.347 0 002.87-11.341c.707-3.022 1.65-5.98 2.166-9.057.476-2.784 1.293-5.512 2.07-8.233 1.11-3.894 2.173-7.804 3.133-11.738.285-1.205.77-2.355.952-3.569.388-2.419 1.165-4.742 1.744-7.106.437-1.792 1.063-3.56 1.468-5.345.698-3.157 1.618-6.266 2.308-9.422.301-1.396.73-2.76 1.078-4.14.714-2.808 1.396-5.608 2.102-8.407.404-1.61.904-3.197 1.221-4.822.5-2.626 1.333-5.156 1.92-7.757.698-3.07 1.72-6.067 2.141-9.2.484-3.6-2.371-6.773-6.012-6.773-5.02.008-10.017.008-15.005.008zm50.045.095v.016c-5.124 0-10.247-.008-15.37 0-2.237.008-4.545 1.681-5.457 3.799-.817 1.903-.889 3.712.016 5.639.92 1.959 3.077 3.664 5.186 3.545 1.928-.111 3.847-.063 5.774-.08 4.925-.031 9.843-.023 14.768-.031 1.03 0 1.404.444 1.245 1.483a6.384 6.384 0 01-.222.952c-1.15 3.593-1.848 7.296-2.816 10.937-.856 3.228-1.705 6.463-2.419 9.731-.27 1.245-.713 2.427-1.007 3.656-.698 2.935-1.467 5.853-2.157 8.788-.301 1.3-.809 2.57-1.007 3.862-.468 2.998-1.705 5.79-2.158 8.796-.277 1.856-.967 3.64-1.395 5.48-.65 2.816-1.483 5.592-2.181 8.391-.952 3.783-1.84 7.574-2.8 11.35-.666 2.64-1.451 5.266-2.054 7.923-.254 1.15-.746 2.236-.936 3.378-.444 2.673-1.214 5.258-1.927 7.844-.984 3.569-1.856 7.178-2.776 10.754-.706 2.768-1.491 5.52-2.11 8.312-.65 2.943-1.538 5.845-2.308 8.772-1.142 4.338 1.42 8.351 6.075 8.335 9.232-.047 18.464-.007 27.688-.007 1.142 0 2.268-.04 3.41-.183 2.133-.27 3.648-1.166 4.656-3.14 1.157-2.285.983-4.497-.143-6.623-1.103-2.078-3.085-3.014-5.354-3.038-6.773-.071-13.562-.023-20.343-.023-1.372 0-1.673-.468-1.158-1.769.151-.357.278-.73.381-1.11.809-3.212 1.602-6.44 2.403-9.652 1.182-4.735 2.292-9.486 3.585-14.189.785-2.847 1.427-5.734 2.15-8.59.697-2.76 1.38-5.543 2.109-8.303.952-3.64 1.84-7.297 2.776-10.945.817-3.172 1.752-6.313 2.403-9.533.317-1.53.888-2.982 1.158-4.529.34-2.022 1.078-3.957 1.49-5.948.58-2.84 1.524-5.575 2.118-8.407.516-2.538 1.285-5.036 1.92-7.558.943-3.744 1.84-7.503 2.807-11.246.397-1.539.944-3.062 1.238-4.608.563-2.974 1.554-5.845 2.149-8.812.436-2.157 1.213-4.235 1.515-6.44.293-2.228-.333-4.068-1.92-5.56-.928-.872-2.078-1.45-3.434-1.45-5.195.031-10.39.031-15.568.031zM192.434 89.867h-.007c0 21.651-.008 43.31.007 64.97 0 1.484.365 2.848 1.42 4.045 1.364 1.547 3.014 2.03 5.028 2.047 3.791.031 6.242-2.8 6.234-6.298-.016-25.577-.008-51.147-.008-76.717 0-2.379.024-4.766-.016-7.137-.015-.85.389-1.19 1.135-1.285.325-.04.658-.008.983-.008h13.499c.563 0 1.086-.095 1.602-.341 2.64-1.293 3.72-3.426 3.473-6.282-.3-3.569-2.783-6.13-6.352-6.107-4.14.032-8.288.008-12.428 0-1.586 0-1.793-.206-1.793-1.816V33.31c0-1.427.238-1.657 1.642-1.657 4.727 0 9.462-.04 14.189.024 2.895.031 4.957-1.135 6.035-3.831 1.658-4.164-.714-8.994-5.551-9.137-7.622-.222-15.268-.119-22.897-.031-3.466.04-6.202 2.807-6.202 6.32.007 21.62.007 43.24.007 64.869zm213.916 16.948v16.053c0 11.087-.008 22.175 0 33.262 0 .746-.166 1.547.23 2.213 1.008 1.697 2.158 3.101 4.267 3.712 4.22 1.23 8.312-2.165 8.288-6.21-.047-9.16-.016-18.337-.016-27.497 0-23.84 0-47.69-.008-71.53 0-1 .19-1.911.81-2.752.903-1.23 1.649-2.562 2.513-3.823 1.317-1.92 2.42-3.99 3.665-5.956 1.49-2.356 3.117-4.64 4.568-7.02 1.57-2.577 3.149-5.146 4.83-7.653 1.26-1.895 2.15-3.846 1.808-6.202-.08-.555-.166-1.094-.484-1.57-1.633-2.466-3.735-3.91-6.892-3.664-1.673.127-2.87.904-3.854 2.014-1.388 1.547-2.22 3.498-3.331 5.259-1.483 2.363-2.768 4.846-4.172 7.265-1.372 2.355-2.792 4.687-4.188 7.018a22.886 22.886 0 01-1.292 1.952c-.365.475-.778.563-1.119-.112-1.054-2.125-2.34-4.116-3.545-6.146-1.768-2.958-3.474-5.948-5.218-8.915-1.182-2.014-2.34-4.052-3.601-6.02-.706-1.102-1.832-1.91-3.061-2.14-2.197-.405-4.402-.302-6.226 1.38-1.96 1.808-2.95 4.084-2.078 6.804.388 1.214 1.102 2.173 1.753 3.212 2.72 4.307 5.448 8.613 8.169 12.912 2.458 3.862 4.933 7.717 7.375 11.587.468.738.825 1.507.825 2.459-.024 16.71-.016 33.413-.016 50.108z" fill="#E5202D"/><path d="M178.468 178.829c55.62 0 111.225.016 166.837-.048 1.943 0 3.204.659 4.473 1.983 3.173 3.315 6.464 6.512 9.708 9.763a3414.82 3414.82 0 015.028 5.068c.5.508.516.936-.04 1.491a3695.94 3695.94 0 00-15.782 15.76c-.627.634-1.309.998-2.229.998-29.29-.015-58.586-.015-87.876-.015-79.841 0-159.691 0-239.54-.024-3.57 0-6.298-1.76-8.376-4.632-1.38-1.903-1.832-4.02-1.824-6.337.032-7.526.016-15.06.008-22.603 0-1.23.182-1.42 1.404-1.42 12.039 0 24.07.008 36.11.008 44.033.008 88.066.008 132.099.008zm-10.247 17.266c0 1.856 0 3.72-.008 5.575 0 .54.103.992.777.992 1.206 0 2.411.016 3.617-.016.658-.024.991-.365.928-1.087-.056-.642-.056-1.3-.024-1.95.016-.381-.182-.976.42-1.032.571-.047.69.54.786.968.174.793.285 1.594.626 2.355.206.468.5.754 1.023.754.714 0 1.436.024 2.15-.016.467-.024.999-.143 1.038-.698.072-1.221.841-2.26.833-3.498 0-.34.048-.824.516-.809.523.008.515.5.5.88a90.252 90.252 0 01-.127 2.927c-.048.817.285 1.23 1.126 1.214 1.078-.016 2.149-.008 3.228-.008.817 0 1.221-.27 1.213-1.214a397.967 397.967 0 010-10.659c.008-.92-.357-1.221-1.205-1.221-1.96.016-3.91.008-5.87-.008-.515 0-.816.19-1.054.674-.38.777-.658 1.546-.666 2.419-.008.27-.088.626-.437.69-.372.08-.5-.254-.602-.516-.254-.666-.627-1.308-.65-2.038-.025-.944-.556-1.221-1.405-1.213-1.887 0-3.783-.016-5.67-.056-.81-.016-1.095.317-1.079 1.118.04 1.825.016 3.64.016 5.473zm86.742-.048c0 1.856.04 3.72-.024 5.568-.016.69.27 1 .864 1.007 1.698.032 3.395.016 5.084.008.547-.008.825-.293.793-.872a26.073 26.073 0 01-.023-1.761c0-.317-.072-.706.317-.849.436-.166.666.183.856.476.516.785 1 1.594 1.491 2.403.254.429.603.643 1.119.643 1.887-.016 3.783.008 5.67.008.286 0 .643.031.746-.326a.936.936 0 00-.198-.912c-1.325-1.554-2.34-3.339-3.482-5.036-.254-.38-.254-.722 0-1.078 1.118-1.547 2.22-3.117 3.363-4.648.198-.27.46-.5.325-.857-.15-.404-.54-.293-.84-.301-1.825-.008-3.65.016-5.473 0-.54-.008-.936.159-1.222.619-.476.777-.975 1.53-1.459 2.3-.19.309-.373.682-.801.594-.476-.095-.397-.53-.405-.872 0-.555-.015-1.118.04-1.665.056-.635-.262-.936-.825-.944a155.154 155.154 0 00-5.083.008c-.548.008-.85.261-.833.928.031 1.84 0 3.695 0 5.56zm-131.774 1.705v-.023h3.323c.65 0 .912-.27.896-.96-.016-1.285-.301-2.49-.746-3.688-.634-1.681-1.8-2.871-3.426-3.482-2.197-.825-4.362-.967-6.725-.166-4.362 1.49-5.346 5.528-4.132 9.208 1.078 3.275 3.918 4.116 6.979 4.489 2.038.261 3.973-.452 5.972-.563.523-.032.872-.326.96-.928.063-.452.103-.897.103-1.357.008-1.213-.468-1.673-1.594-1.276-1.317.46-2.641.237-3.966.317a1.834 1.834 0 01-1.102-.341c-.294-.206-.65-.413-.555-.833.11-.476.539-.397.88-.397 1.047-.008 2.094 0 3.133 0zm103.896-1.673c0 1.792.032 3.585-.008 5.377-.024.857.357 1.198 1.15 1.198 1.594.008 3.189.008 4.79 0 .794 0 1.23-.333 1.15-1.19-.055-.618-.047-1.237-.095-1.856-.063-.8.326-1.158 1.095-1.15.777.008 1.554.032 2.34.056 3.52.095 5.916-1.848 6.194-5.06.166-1.912-1.491-3.823-3.434-3.87-1.69-.048-3.387-.048-5.084-.056-2.245-.008-4.497-.024-6.742-.008-1.181.016-1.356.238-1.348 1.38 0 1.721-.008 3.45-.008 5.179zm67.271 1.626v-.016c1.047 0 2.086-.008 3.133.008.761.008 1.118-.286 1.087-1.118-.04-1.15-.31-2.205-.62-3.308-.53-1.895-1.863-2.902-3.45-3.577-2.037-.872-4.131-.999-6.36-.277-3.355 1.079-5.266 3.99-4.87 7.36.27 2.347 1.436 4.1 3.546 5.234 1.332.714 2.76.88 4.211 1.023 1.911.183 3.744-.428 5.615-.53.587-.033.952-.405 1.008-1.008.047-.46.095-.912.063-1.364-.063-1.158-.405-1.436-1.491-1.079-1.372.452-2.776.262-4.156.31-.547.023-.991-.286-1.404-.62-.222-.174-.523-.372-.388-.713.127-.31.468-.317.761-.325 1.102-.008 2.205 0 3.315 0zm-202.495-8.106v.056c-2.15 0-4.299.008-6.448-.008-.737-.008-1.039.27-1.03 1.039.023 3.585.03 7.17 0 10.754-.009.81.308 1.134 1.078 1.134 1.435-.007 2.87-.015 4.298.008.849.008 1.214-.317 1.182-1.237-.063-2.276-.024-4.552-.048-6.836-.007-.762.334-1.063 1.063-1.047.69.008 1.103.222 1.087 1.023-.032 2.276-.024 4.56-.04 6.836-.008 1.047.167 1.246 1.237 1.253 1.27.008 2.538.016 3.807 0 1.119-.015 1.285-.214 1.285-1.324-.008-3.387-.024-6.773-.016-10.16 0-1.316-.166-1.49-1.499-1.49h-5.956zm55.065 0c-1.887 0-3.783.008-5.663-.008-.888-.008-1.276.318-1.269 1.277.048 3.482.048 6.98 0 10.453-.007.92.342 1.246 1.182 1.246 1.404-.008 2.808 0 4.204 0 .769 0 1.134-.357 1.054-1.158-.047-.516-.023-1.047-.031-1.563-.024-1.372.11-1.523 1.483-1.499 1.824.016 3.624 0 5.393-.626 2.046-.73 3.244-2.697 2.895-5.029-.294-1.943-1.721-3.069-3.966-3.1-1.76-.009-3.521.007-5.282.007zm61.03 12.944v.031c1.633 0 3.26.008 4.893 0 1.11-.007 1.348-.23 1.269-1.332-.175-2.348-.064-4.687-.016-7.027.056-2.427-1.237-3.799-3.283-4.489-2.269-.753-4.592-.73-6.94-.357-3.101.492-3.149.5-2.974 3.133.055.912.31 1.023 1.182.69 1.68-.642 3.426-.745 5.186-.38.58.118.928.578.794 1.157-.127.548-.65.357-1.063.357-1.888-.008-3.736.103-5.528.865-2.26.96-2.697 3.664-1.793 5.456.683 1.356 1.951 1.848 3.395 1.888 1.61.047 3.244.008 4.878.008zm110.257-12.991h-5.282c-1.5.008-1.579.095-1.563 1.626.024 2.403.024 2.426 2.459 2.355.896-.024 1.213.31 1.19 1.206-.064 2.308-.048 4.623-.064 6.931-.008.69.294 1 1.007.992 1.5-.032 2.998-.024 4.497-.008.793.008 1.087-.35 1.063-1.15-.04-1.92-.024-3.839-.024-5.766 0-2.181.008-2.189 2.245-2.126.73.016 1.094-.27 1.078-1.03a22.696 22.696 0 01.024-1.952c.056-.785-.23-1.126-1.063-1.102-1.856.055-3.72.024-5.567.024zm-277.96 6.432c-.007 1.856.017 3.712-.015 5.567-.016.738.246 1.11.991 1.103 1.594 0 3.189.008 4.79 0 .738 0 1.127-.286 1.103-1.126-.048-2.237.008-4.49-.048-6.734-.023-.928.397-1.237 1.214-1.237h2.348c.65.008.951-.317.951-.96 0-.682-.031-1.372.016-2.054.048-.722-.27-1-.967-.991-3.125.008-6.25.008-9.375-.008-.753 0-1.031.317-1.015 1.07.032 1.793.008 3.577.008 5.37zm24.452.119h.032c0 1.792.032 3.577-.016 5.37-.016.737.206 1.117.976 1.11 1.467-.009 2.934 0 4.393-.009.746-.007 1-.404.976-1.134-.135-3.577-.15-7.146 0-10.73.032-.77-.286-1.063-1.023-1.063-1.467 0-2.927-.024-4.386-.056-.658-.008-.96.294-.952.944v5.568zm3.18-12.27c-3.957.08-3.148-.61-3.26 2.856 0 .063 0 .134.009.19.047.61.317.952.991.92.912-.048 1.816-.016 2.728-.04 3.03-.071 2.76.635 2.808-2.91v-.19c.008-.572-.27-.833-.833-.826-.817.008-1.626 0-2.442 0z" fill="#0C296E"/><path d="M415.233 213.694c-7.534 0-15.06 0-22.603-.008-.405 0-.936.166-1.119-.341-.166-.484.294-.746.587-1.04 2.562-2.577 5.124-5.154 7.693-7.724 2.427-2.419 4.846-4.814 7.273-7.217.976-.968 1.015-1.142.024-2.142-3.545-3.553-7.106-7.09-10.66-10.635-1.49-1.5-2.981-3.006-4.472-4.513-.238-.246-.564-.5-.342-.92.183-.333.54-.317.873-.301 4.433.277 8.859.103 13.292.11 12.983.033 25.95.017 38.934.025.19 0 .396 0 .587-.008 1.919-.056 1.911-.056 1.911 1.919 0 7.534-.119 15.069.04 22.603.087 4.22-3.228 8.47-7.257 9.692a11.54 11.54 0 01-3.45.508c-7.098-.024-14.197-.008-21.31-.008z" fill="#E5202D"/><path d="M369.479 213.971c-2.181 0-4.37.008-6.551-.008-.436 0-1.023.143-1.182-.388-.166-.5.31-.896.643-1.23 1.03-1.038 2.11-2.03 3.14-3.069 2.086-2.094 4.132-4.22 6.218-6.305 1.88-1.88 3.8-3.735 5.71-5.583.802-.778.88-1.095.104-1.944-1.309-1.443-2.689-2.815-4.069-4.195-1.324-1.332-2.696-2.617-4.037-3.942-1.975-1.967-3.942-3.95-5.908-5.924-.548-.547-1.11-1.103-1.634-1.674-.444-.483-.27-.88.388-1.007 1.198-.222 2.396-.04 3.593-.032 2.935.016 5.861-.031 8.796-.11 1.752-.056 3.077.562 4.219 1.942 1.166 1.42 2.585 2.641 3.894 3.95.936.936 1.84 1.904 2.792 2.816 1.3 1.26 2.577 2.545 3.862 3.822 1.515 1.507 3.101 2.943 4.465 4.592.468.556.452 1-.087 1.515-2.538 2.459-5.092 4.917-7.574 7.432-1.665 1.673-3.228 3.458-4.862 5.155-1.181 1.245-2.41 2.458-3.632 3.672-.484.476-1.118.492-1.737.5-2.181.015-4.37.015-6.551.015z" fill="#E5202D"/><path d="M19.165 89.7c0-21.525.008-43.058-.008-64.582 0-3.839 2.919-6.456 6.496-6.456 18.463-.024 36.927-.008 55.382-.008 24.237 0 48.467.016 72.704-.008 2.316 0 4.203.714 5.655 2.498.777.952 1.19 2.102 1.308 3.3.111 1.094.04 2.212.04 3.323v124.47c0 1.006.071 2.037-.095 3.029-.46 2.807-2.84 5.21-6.17 5.155-4.14-.063-8.28-.016-12.428-.016-38.942 0-77.891-.016-116.832.04-3.276 0-6.107-3.173-6.1-6.06.096-21.572.056-43.128.048-64.685.008 0 .008 0 0 0zm28.02-61.458c-4.695 0-9.39.016-14.085-.008-2.49-.007-4.386.897-5.607 3.157-.889 1.642-.341 5.052 1.078 6.25 1.277 1.07 2.713 1.57 4.394 1.562 7.011-.032 14.022-.016 21.033-.008.984 0 1.96-.008 2.935.008.515.008.944.167 1.11.754.627 2.228.865 4.52 1.348 6.773.532 2.514.992 5.044 1.46 7.566.365 1.95.888 3.878 1.197 5.821.595 3.791 1.475 7.519 2.126 11.302.555 3.196 1.332 6.36 1.832 9.573.333 2.117.904 4.18 1.205 6.313.365 2.593 1.023 5.147 1.491 7.74.484 2.626 1.135 5.211 1.531 7.844.31 2.023.754 4.03 1.182 6.02.412 1.903.634 3.839 1.078 5.742.627 2.689 1.127 5.409 1.563 8.137.349 2.181.983 4.307 1.26 6.512.191 1.562.5 3.14.873 4.679.333 1.372.286 1.594-1.078 1.594-4.14.016-8.28 0-12.428.016-.65.008-1.11-.182-1.452-.761-.991-1.658-2.34-3.046-4.013-3.918-3.418-1.793-6.947-2.07-10.604-.397-3.354 1.53-5.4 4.116-6.344 7.543-.952 3.418-.286 6.654 1.72 9.572.675.984 1.325 2.126 2.348 2.681 1.658.896 3.3 1.84 5.314 2.022 2.586.23 5.028.143 7.312-1.19 1.531-.888 2.903-1.942 3.863-3.489.507-.825 1.3-1.221 2.387-1.221 17.908.04 35.817.023 53.717.023.555 0 1.11.008 1.666 0 .642-.007 1.126.262 1.459.817a8.96 8.96 0 001.293 1.713c2.197 2.253 4.885 3.45 8.018 3.49 1.65.032 3.355-.055 4.862-.8 1.99-.984 3.727-2.285 5.036-4.18 1.221-1.785 1.816-3.712 2.07-5.79.198-1.626-.294-3.149-.746-4.687-.5-1.706-1.49-3.157-2.72-4.323a12.034 12.034 0 00-5.472-2.974c-4.56-1.126-9.748 1.007-12.222 4.79-.603.912-1.3 1.19-2.268 1.158-4.696-.174-9.39-.055-14.086-.079-4.989-.024-9.977-.032-14.974.008-.856.008-1.364-.23-1.554-1.087-.08-.349-.286-.674-.317-1.023-.342-3.704-1.404-7.28-1.991-10.937-.365-2.3-1.04-4.56-1.356-6.868-.302-2.229-.793-4.418-1.261-6.606-.5-2.356-.69-4.775-1.34-7.09-.564-2-.564-4.117-1.27-6.084-.238-.658-.024-1.142.674-1.372.413-.135.833-.135 1.261-.135 17.155 0 34.31-.008 51.465 0 1.562 0 3.125-.032 4.687.08 2.134.158 4.727-1.753 5.187-3.736.563-2.403 1.134-4.814 1.594-7.241.833-4.37 1.769-8.724 2.68-13.078 1.04-4.926 2.087-9.85 3.094-14.784.817-3.965-2.141-6.646-5.457-6.598-7.209.103-14.418.023-21.627.023-16.997 0-33.985.008-50.981.008-1.658 0-1.69-.127-1.896-1.737-.261-1.998-.579-3.997-1.055-5.948-.626-2.562-.975-5.17-1.483-7.756-.666-3.355-2.395-5.378-6.067-5.394-4.87-.007-9.763.008-14.648.008zm230.992 61.759c0 16.568-.016 33.136.032 49.704 0 2.348-.286 4.648-.984 6.82-1.063 3.308-2.918 6.187-5.448 8.662-2.174 2.117-4.76 3.553-7.495 4.64-1.618.642-3.371 1.157-5.211 1.157-2.966.008-5.94.095-8.788-.904-1.65-.571-3.235-1.285-4.719-2.252-1.689-1.095-3.1-2.467-4.465-3.91-1.475-1.555-2.553-3.355-3.442-5.29-1.388-3.014-1.776-6.179-1.768-9.478.031-33.43 0-66.859.031-100.288 0-3.283.88-6.369 2.356-9.359 1.515-3.085 3.743-5.48 6.368-7.534 1.61-1.253 3.514-2.03 5.45-2.776 3.552-1.372 7.216-1.126 10.817-.809 2.482.214 4.854 1.325 7.035 2.689 4.148 2.593 7.043 6.146 8.764 10.746 1.03 2.729 1.475 5.497 1.475 8.383-.008 16.6 0 33.2-.008 49.8zm-12.84-.142V39.084c0-.73-.088-1.427-.357-2.102-.793-1.959-2.039-3.473-3.87-4.608-3.728-2.3-7.741-1.054-10.144 1.666-1.618 1.832-2.253 4.029-2.253 6.543.048 32.58.032 65.161.024 97.742 0 1.808.159 3.545 1 5.21 1.395 2.73 3.68 4.117 6.606 4.49 1.293.166 2.53-.12 3.79-.658 3.213-1.388 5.211-4.156 5.211-7.614-.007-16.632-.007-33.263-.007-49.894zm45.746-71.213h14.974c3.64 0 6.487 3.172 6.011 6.773-.42 3.133-1.443 6.13-2.141 9.2-.587 2.601-1.42 5.131-1.92 7.757-.317 1.625-.824 3.212-1.22 4.822-.707 2.8-1.389 5.607-2.103 8.406-.348 1.38-.777 2.753-1.078 4.14-.69 3.157-1.61 6.258-2.308 9.423-.405 1.792-1.031 3.553-1.467 5.345-.571 2.371-1.357 4.687-1.745 7.106-.183 1.214-.666 2.364-.952 3.57-.952 3.933-2.022 7.843-3.133 11.737-.777 2.72-1.594 5.449-2.07 8.233-.515 3.077-1.467 6.035-2.165 9.057a312.133 312.133 0 01-2.87 11.341 343.61 343.61 0 00-1.69 6.496c-.81 3.14-1.586 6.289-2.38 9.43-.404 1.61-.808 3.212-1.19 4.822-.205.896.334 1.086 1.056 1.086 2.506-.008 5.02 0 7.534 0 4.465 0 8.938-.095 13.396.032 3.188.087 5.63 2.514 5.9 5.774.23 2.807-.785 4.949-3.188 6.424-1.158.714-2.522.753-3.775.761-9.842.072-19.693-.04-29.551.048-4.227.04-7.249-4.196-6.099-8.32.809-2.831 1.777-5.639 2.15-8.605.174-1.467.8-2.863 1.22-4.298.072-.246.223-.5.223-.746.047-1.721.825-3.26 1.19-4.901.697-3.038 1.467-6.06 2.188-9.09.246-1.007.603-1.974.833-2.997.555-2.506 1.325-4.957 1.967-7.44.468-1.792.738-3.64 1.324-5.385.54-1.602.572-3.315 1.317-4.87.436-.888.5-1.95.698-2.918.357-1.785.825-3.545 1.332-5.274.484-1.61.627-3.268 1.135-4.878.491-1.562.832-3.212 1.213-4.83.341-1.49.627-2.998 1.19-4.433.11-.278.127-.563.182-.84.635-2.705 1.221-5.426 1.959-8.098.579-2.11 1-4.244 1.539-6.353.888-3.45 1.903-6.869 2.934-10.287.206-.674-.143-1.293.135-1.975 1.086-2.68 1.396-5.591 2.371-8.32.468-1.316.754-2.751 1.04-4.155.53-2.705 1.395-5.33 1.958-8.034.286-1.349.175-1.618-1.245-1.618-6.448 0-12.912.016-19.368.016-.872 0-1.736-.016-2.6-.294-1.992-.65-3.19-2.094-3.91-3.918-1.016-2.554.285-6.194 2.56-7.74 1.23-.833 2.53-1.198 4.038-1.182 4.854.055 9.723.016 14.577.016.024-.008.024-.016.024-.016zm50.045.095h15.552c1.357 0 2.499.579 3.434 1.451 1.587 1.491 2.213 3.331 1.92 5.56-.302 2.205-1.087 4.283-1.515 6.44-.587 2.974-1.578 5.837-2.15 8.811-.293 1.547-.84 3.07-1.237 4.608-.967 3.744-1.863 7.503-2.807 11.247-.635 2.522-1.404 5.012-1.92 7.558-.586 2.831-1.53 5.567-2.117 8.407-.412 1.99-1.15 3.934-1.491 5.948-.262 1.547-.833 2.998-1.158 4.529-.65 3.212-1.586 6.36-2.403 9.533-.928 3.648-1.816 7.304-2.776 10.945-.73 2.76-1.412 5.543-2.11 8.303-.73 2.856-1.372 5.742-2.149 8.59-1.293 4.703-2.403 9.453-3.585 14.188-.8 3.212-1.594 6.44-2.403 9.652a8.72 8.72 0 01-.38 1.11c-.508 1.301-.207 1.77 1.157 1.77 6.781 0 13.57-.048 20.343.023 2.269.024 4.251.96 5.354 3.038 1.126 2.125 1.3 4.338.143 6.622-1.008 1.975-2.522 2.871-4.656 3.14-1.142.152-2.268.183-3.41.183-9.224 0-18.456-.04-27.687.008-4.656.016-7.21-3.997-6.076-8.335.77-2.927 1.658-5.83 2.308-8.772.619-2.792 1.404-5.544 2.11-8.312.912-3.577 1.792-7.185 2.776-10.754.714-2.586 1.49-5.171 1.927-7.844.19-1.15.682-2.229.936-3.379.603-2.657 1.388-5.282 2.054-7.923.952-3.783 1.84-7.574 2.8-11.35.706-2.807 1.53-5.575 2.18-8.39.429-1.84 1.119-3.625 1.397-5.48.46-3.006 1.697-5.798 2.157-8.796.198-1.293.706-2.562 1.007-3.862.698-2.935 1.467-5.854 2.157-8.788.294-1.23.738-2.419 1.008-3.656.713-3.268 1.554-6.504 2.419-9.732.967-3.64 1.673-7.344 2.815-10.936.103-.31.175-.635.222-.952.159-1.031-.214-1.483-1.245-1.483-4.925 0-9.842 0-14.768.031-1.919.008-3.838-.031-5.773.08-2.118.119-4.267-1.594-5.187-3.545-.904-1.936-.825-3.744-.016-5.64.912-2.117 3.22-3.798 5.456-3.798 5.124-.016 10.247 0 15.37 0 .017-.04.017-.048.017-.048zM192.434 89.867V24.99c0-3.514 2.737-6.282 6.203-6.321 7.63-.088 15.267-.19 22.896.031 4.838.143 7.21 4.973 5.552 9.137-1.078 2.704-3.14 3.87-6.035 3.83-4.727-.063-9.462-.023-14.189-.023-1.396 0-1.634.238-1.642 1.657 0 7.21-.008 14.411 0 21.628 0 1.61.207 1.817 1.793 1.817 4.14 0 8.28.023 12.428 0 3.569-.024 6.051 2.537 6.352 6.106.246 2.856-.832 4.99-3.473 6.282-.516.254-1.04.34-1.602.34h-13.5c-.324 0-.657-.023-.983.009-.745.087-1.15.436-1.134 1.285.04 2.379.016 4.758.016 7.138 0 25.57-.008 51.139.008 76.716 0 3.498-2.45 6.33-6.234 6.298-2.014-.016-3.664-.5-5.028-2.047-1.055-1.19-1.42-2.561-1.42-4.044-.015-21.66-.008-43.32-.008-64.971-.007.008-.007.008 0 .008zm213.916 16.948c0-16.695-.008-33.397.016-50.1 0-.952-.365-1.721-.825-2.459-2.442-3.87-4.917-7.725-7.375-11.587a4410.064 4410.064 0 01-8.17-12.912c-.65-1.03-1.364-1.99-1.752-3.212-.873-2.72.119-4.996 2.078-6.805 1.824-1.681 4.029-1.792 6.226-1.38 1.221.222 2.355 1.04 3.061 2.142 1.261 1.967 2.419 4.005 3.6 6.02 1.745 2.966 3.459 5.948 5.22 8.914 1.205 2.03 2.49 4.02 3.544 6.146.341.675.754.58 1.119.111.476-.61.888-1.284 1.292-1.95 1.404-2.332 2.816-4.664 4.188-7.02 1.412-2.41 2.697-4.9 4.172-7.264 1.11-1.761 1.943-3.704 3.33-5.259.984-1.11 2.182-1.887 3.855-2.014 3.157-.246 5.259 1.197 6.892 3.664.318.476.405 1.007.484 1.57.35 2.356-.54 4.307-1.808 6.202-1.681 2.507-3.26 5.084-4.83 7.654-1.46 2.38-3.077 4.663-4.568 7.019-1.246 1.975-2.348 4.037-3.665 5.956-.864 1.261-1.61 2.593-2.514 3.823-.61.84-.809 1.753-.809 2.752.008 23.84.008 47.69.008 71.53 0 9.16-.031 18.336.016 27.497.024 4.045-4.068 7.44-8.288 6.21-2.11-.61-3.26-2.015-4.267-3.712-.396-.666-.23-1.475-.23-2.213-.008-11.087 0-22.175 0-33.262v-16.06zm-238.129 89.28c0-1.824.024-3.648-.008-5.473-.016-.8.278-1.134 1.079-1.118 1.887.04 3.783.056 5.67.056.849-.008 1.372.27 1.404 1.213.016.73.389 1.372.65 2.038.104.262.223.595.603.516.35-.064.429-.42.437-.69.015-.865.293-1.642.666-2.42.238-.483.531-.673 1.055-.673 1.959.016 3.91.024 5.869.008.84 0 1.213.301 1.205 1.221a397.967 397.967 0 000 10.66c.008.943-.397 1.213-1.213 1.213-1.079 0-2.15-.008-3.228.008-.841.016-1.174-.405-1.127-1.214.056-.975.104-1.95.127-2.926.008-.38.024-.873-.5-.88-.467-.016-.515.467-.515.808.008 1.238-.761 2.277-.833 3.498-.04.555-.57.674-1.039.698-.713.04-1.435.016-2.149.016-.523 0-.817-.286-1.023-.754-.333-.761-.444-1.562-.627-2.355-.095-.428-.214-1.015-.785-.968-.602.056-.404.65-.42 1.031-.032.65-.032 1.309.024 1.951.063.722-.27 1.063-.928 1.087-1.206.032-2.411.016-3.617.016-.674 0-.777-.452-.777-.992 0-1.863-.008-3.72 0-5.575zm86.742-.048c0-1.856.031-3.72-.024-5.567-.016-.667.285-.92.833-.928 1.689-.032 3.386-.032 5.084-.008.563.008.88.31.824.944-.055.547-.04 1.11-.04 1.665.009.341-.07.785.405.873.428.087.603-.286.801-.595.484-.77.984-1.523 1.46-2.3.285-.468.682-.627 1.22-.619 1.825.016 3.65-.008 5.473 0 .302.008.698-.103.841.301.135.357-.127.587-.325.857-1.142 1.53-2.245 3.101-3.363 4.648-.254.356-.254.698 0 1.078 1.15 1.697 2.157 3.474 3.482 5.036a.936.936 0 01.198.912c-.103.357-.46.326-.745.326-1.888 0-3.784-.024-5.671-.008-.508 0-.857-.214-1.118-.643-.492-.809-.968-1.618-1.491-2.403-.19-.285-.429-.642-.857-.476-.389.151-.317.532-.317.849a25.96 25.96 0 00.024 1.76c.04.58-.238.865-.794.873-1.689.008-3.386.024-5.083-.008-.595-.008-.88-.317-.865-1.007.087-1.84.048-3.704.048-5.56zm-131.774 1.705c-1.04 0-2.086-.008-3.125 0-.341 0-.777-.079-.88.397-.096.428.261.627.555.833.333.222.705.357 1.102.34 1.325-.079 2.641.144 3.966-.316 1.126-.397 1.602.063 1.594 1.276 0 .46-.04.905-.103 1.357-.088.602-.437.896-.96.928-1.999.119-3.934.824-5.972.563-3.062-.381-5.909-1.214-6.98-4.49-1.213-3.68-.23-7.724 4.133-9.207 2.363-.81 4.528-.666 6.725.166 1.634.611 2.8 1.809 3.426 3.482.444 1.19.73 2.403.746 3.688.008.69-.254.96-.896.96h-3.323c-.008.008-.008.015-.008.023zm-3.292-2.926h.603c.389-.008.817.04 1.015-.389.198-.412-.055-.745-.293-1.055-.143-.174-.278-.356-.444-.507-.405-.365-.889-.38-1.357-.175-.515.222-.983.54-.991 1.182-.04 1.253.912.88 1.467.944zm107.188 1.253c0-1.729.008-3.458 0-5.179 0-1.142.167-1.364 1.348-1.38 2.245-.016 4.497 0 6.742.008 1.697.008 3.394.008 5.084.055 1.935.048 3.6 1.96 3.434 3.87-.278 3.205-2.673 5.148-6.194 5.06-.786-.023-1.563-.047-2.34-.055-.77-.008-1.158.35-1.095 1.15.048.619.04 1.238.096 1.856.087.857-.357 1.19-1.15 1.19-1.594.008-3.189.008-4.79 0-.794 0-1.174-.341-1.15-1.198.047-1.792.015-3.593.015-5.377zm6.9-2.022c.008 1.094.254 1.395 1.15 1.395.968.008 1.674-.57 1.69-1.38.015-.8-.62-1.3-1.61-1.3-.984-.008-1.23.254-1.23 1.285zm60.371 3.648c-1.11 0-2.213-.008-3.315 0-.293.008-.634.016-.761.325-.143.341.166.531.388.714.413.333.849.642 1.404.618 1.388-.047 2.792.143 4.156-.309 1.086-.357 1.428-.08 1.491 1.079.032.452-.016.904-.063 1.364-.056.603-.42.975-1.008 1.007-1.871.111-3.704.722-5.615.531-1.46-.142-2.879-.309-4.211-1.023-2.118-1.142-3.276-2.887-3.545-5.234-.397-3.37 1.514-6.281 4.87-7.36 2.228-.722 4.322-.595 6.36.277 1.578.675 2.91 1.682 3.45 3.577.31 1.103.579 2.158.619 3.308.031.824-.326 1.126-1.087 1.118-1.047-.016-2.086-.008-3.133-.008v.016zm-3.006-2.943c.54-.15 1.476.413 1.515-.753.024-.627-.88-1.396-1.538-1.38-.627.024-1.618.833-1.57 1.372.094 1.087.943.698 1.593.761zM91.861 189.6c1.983 0 3.973 0 5.956-.009 1.333 0 1.5.175 1.5 1.491-.009 3.387 0 6.774.015 10.16 0 1.11-.166 1.309-1.285 1.325-1.269.015-2.538.007-3.807 0-1.07-.008-1.245-.207-1.237-1.254.016-2.276 0-4.56.04-6.836.008-.801-.397-1.015-1.087-1.023-.73-.016-1.07.285-1.063 1.047.024 2.284-.015 4.56.048 6.836.024.92-.333 1.245-1.182 1.237a194.251 194.251 0 00-4.298-.007c-.77 0-1.087-.326-1.079-1.135.032-3.584.032-7.17 0-10.754-.008-.77.294-1.047 1.031-1.039 2.15.016 4.299.008 6.448.008v-.048zm55.065 0c1.76 0 3.522-.017 5.282 0 2.253.031 3.672 1.157 3.966 3.1.349 2.332-.849 4.299-2.895 5.029-1.769.626-3.569.642-5.393.626-1.372-.024-1.507.135-1.483 1.5.008.515-.016 1.046.031 1.562.08.8-.285 1.157-1.054 1.157-1.404 0-2.808-.007-4.204 0-.84 0-1.197-.325-1.182-1.245a379.41 379.41 0 000-10.453c-.007-.96.381-1.285 1.27-1.277 1.887.008 3.775 0 5.662 0zm.952 5.741c.983-.023 1.634-.539 1.61-1.308-.016-.69-.722-1.23-1.602-1.23-.992 0-1.372.373-1.348 1.333.008.904.364 1.221 1.34 1.205zm60.078 7.202c-1.634 0-3.26.04-4.894-.008-1.443-.04-2.712-.532-3.394-1.888-.905-1.792-.468-4.489 1.792-5.456 1.792-.77 3.64-.873 5.528-.865.42 0 .944.19 1.063-.357.135-.579-.214-1.047-.793-1.158-1.761-.364-3.506-.261-5.187.381-.88.333-1.127.222-1.182-.69-.175-2.625-.127-2.641 2.974-3.133 2.348-.372 4.68-.396 6.94.357 2.046.69 3.339 2.07 3.283 4.49-.047 2.339-.158 4.678.016 7.026.087 1.102-.159 1.325-1.269 1.332-1.634.008-3.26 0-4.893 0 .016-.007.016-.015.016-.031zm.396-4.434c.008-.579.143-1.221-.777-1.245-.888-.016-2.126.746-2.165 1.364-.056.746.682 1.293 1.752 1.309.984.008 1.166-.206 1.19-1.428zm109.861-8.557c1.848 0 3.711.031 5.567-.008.825-.024 1.119.317 1.063 1.102-.04.65-.04 1.3-.024 1.951.016.762-.349 1.047-1.078 1.031-2.237-.071-2.245-.063-2.245 2.126 0 1.92-.016 3.838.024 5.766.024.8-.27 1.158-1.063 1.15a141.662 141.662 0 00-4.497.008c-.713.008-1.015-.302-1.007-.992.016-2.308 0-4.624.064-6.932.023-.896-.294-1.229-1.19-1.205-2.435.071-2.435.048-2.459-2.356-.016-1.53.064-1.617 1.563-1.625 1.76-.016 3.513-.016 5.282-.016zm-277.959 6.432c0-1.793.024-3.577-.008-5.37-.016-.753.262-1.07 1.015-1.07 3.125.016 6.25.016 9.375.008.697-.008 1.015.27.967.991-.047.682-.016 1.372-.016 2.054 0 .643-.31.968-.951.96h-2.348c-.817 0-1.237.31-1.214 1.237.056 2.237 0 4.49.048 6.734.016.832-.365 1.126-1.102 1.126-1.594.008-3.189 0-4.79 0-.754.008-1.008-.365-.992-1.103.032-1.855.008-3.711.016-5.567zm24.451.119v-5.56c0-.65.302-.952.952-.944 1.467.032 2.926.056 4.386.056.737 0 1.055.293 1.023 1.063-.15 3.576-.135 7.145 0 10.73.024.73-.222 1.126-.976 1.134-1.467.008-2.926 0-4.393.008-.762.008-.992-.372-.976-1.11.048-1.792.016-3.577.016-5.37-.016-.007-.024-.007-.032-.007zm3.181-12.27c.816 0 1.625.008 2.434 0 .563-.007.849.254.833.825v.19c-.04 3.546.23 2.84-2.807 2.911-.913.024-1.817-.008-2.729.04-.674.032-.944-.31-.991-.92 0-.063-.008-.135-.008-.19.119-3.466-.682-2.784 3.268-2.856z" fill="#FCFDFC"/><path d="M47.186 28.242c4.893 0 9.786-.008 14.68.008 3.672.008 5.4 2.039 6.067 5.393.508 2.578.857 5.187 1.483 7.757.476 1.951.793 3.958 1.055 5.948.206 1.61.238 1.737 1.896 1.737 16.996 0 33.984 0 50.98-.008 7.21 0 14.419.08 21.628-.024 3.323-.047 6.274 2.634 5.457 6.6a1880.363 1880.363 0 01-3.093 14.783c-.92 4.354-1.848 8.708-2.681 13.078-.46 2.427-1.031 4.838-1.594 7.24-.46 1.984-3.054 3.887-5.187 3.736-1.57-.119-3.133-.079-4.687-.079-17.155-.008-34.31 0-51.465 0-.428 0-.84 0-1.26.135-.699.23-.913.706-.675 1.372.698 1.975.706 4.084 1.269 6.083.65 2.316.849 4.735 1.34 7.09.468 2.19.96 4.378 1.261 6.607.318 2.308.992 4.568 1.357 6.868.586 3.656 1.65 7.233 1.99 10.937.032.35.238.674.317 1.023.183.849.698 1.095 1.555 1.087 4.989-.04 9.977-.032 14.974-.008 4.695.024 9.39-.103 14.085.08.968.039 1.666-.239 2.269-1.159 2.474-3.79 7.66-5.916 12.221-4.79a12.034 12.034 0 015.473 2.974c1.229 1.158 2.22 2.617 2.72 4.322.452 1.531.944 3.062.746 4.688-.254 2.086-.841 4.013-2.07 5.79-1.31 1.895-3.046 3.196-5.037 4.179-1.507.745-3.212.825-4.861.801-3.133-.048-5.814-1.237-8.019-3.49a9.427 9.427 0 01-1.292-1.713c-.334-.547-.817-.825-1.46-.817-.555.008-1.11 0-1.665 0-17.9 0-35.809.016-53.717-.023-1.087 0-1.872.404-2.387 1.22-.968 1.547-2.332 2.602-3.863 3.49-2.284 1.333-4.727 1.428-7.312 1.19-2.015-.174-3.656-1.126-5.314-2.022-1.023-.555-1.666-1.697-2.348-2.68-1.998-2.92-2.664-6.155-1.72-9.574.951-3.434 2.99-6.011 6.344-7.542 3.648-1.673 7.186-1.396 10.604.397 1.666.872 3.022 2.26 4.013 3.917.341.571.801.77 1.451.762 4.14-.016 8.28 0 12.428-.016 1.365 0 1.412-.222 1.079-1.594a41.15 41.15 0 01-.872-4.68c-.278-2.204-.912-4.33-1.261-6.51-.437-2.73-.936-5.45-1.563-8.138-.444-1.904-.658-3.83-1.078-5.742-.437-1.99-.873-3.997-1.182-6.02-.397-2.633-1.047-5.226-1.53-7.844-.477-2.585-1.127-5.147-1.492-7.74-.301-2.134-.872-4.196-1.205-6.313-.5-3.205-1.285-6.369-1.832-9.573-.65-3.783-1.531-7.51-2.126-11.302-.31-1.95-.833-3.87-1.198-5.821-.468-2.522-.928-5.052-1.459-7.566-.484-2.253-.722-4.553-1.348-6.774-.167-.586-.587-.745-1.11-.753-.984-.016-1.96-.008-2.935-.008-7.011 0-14.03-.024-21.033.008-1.681.008-3.117-.492-4.394-1.562-1.42-1.19-1.975-4.608-1.079-6.25 1.222-2.26 3.117-3.165 5.608-3.157 4.655.008 9.35-.008 14.054-.008zM105.843 59.8H80.6c-2.054 0-4.108-.008-6.162.008-1.198.008-1.46.325-1.246 1.475.77 4.156 1.515 8.312 2.324 12.452.547 2.831 1.3 5.623 1.642 8.502.159 1.324.38 1.46 1.69 1.46 16.995 0 33.984 0 50.972-.009.785 0 1.562.016 2.348.008 1.42-.008 1.641-.23 1.752-1.618.04-.452.111-.904.214-1.348a176.14 176.14 0 001.523-7.035c.627-3.212 1.388-6.4 2.165-9.58.222-.92.032-1.888.445-2.784.515-1.127.293-1.452-.928-1.523-.389-.024-.786-.008-1.174-.008h-30.32zm159.494 30.059v49.902c0 3.458-2 6.226-5.211 7.613-1.253.54-2.49.825-3.791.659-2.927-.38-5.21-1.769-6.607-4.49-.84-1.665-.999-3.41-.999-5.21.008-32.58.024-65.161-.024-97.742 0-2.514.635-4.711 2.253-6.543 2.41-2.72 6.424-3.966 10.143-1.666 1.832 1.135 3.086 2.641 3.87 4.608.27.674.358 1.372.358 2.102.008 16.917.008 33.842.008 50.767z" fill="#E5202D"/><path d="M119.897 194.826c-.555-.072-1.507.31-1.467-.944.016-.642.484-.96.991-1.182.468-.198.952-.182 1.357.175.166.158.309.333.444.507.238.31.491.643.293 1.055-.206.429-.634.38-1.015.389h-.603zm114.088-.769c0-1.031.246-1.293 1.222-1.285.99 0 1.625.5 1.61 1.3-.016.81-.722 1.388-1.69 1.38-.888 0-1.134-.309-1.142-1.395zm57.365.705c-.65-.063-1.499.326-1.594-.761-.047-.531.944-1.348 1.57-1.372.659-.016 1.563.753 1.54 1.38-.04 1.158-.968.603-1.516.753zm-143.472.579c-.984.016-1.332-.301-1.348-1.205-.016-.96.357-1.333 1.348-1.333.88 0 1.586.54 1.602 1.23.032.77-.619 1.285-1.602 1.308zm60.474 2.769c-.024 1.22-.206 1.443-1.19 1.427-1.07-.016-1.816-.563-1.752-1.309.047-.618 1.284-1.38 2.165-1.364.92.016.785.658.777 1.245z" fill="#0C296E"/><path d="M105.843 59.8h30.329c.388 0 .785-.008 1.174.008 1.22.08 1.443.396.927 1.523-.412.896-.222 1.863-.444 2.783-.777 3.18-1.538 6.37-2.165 9.581-.46 2.356-.967 4.695-1.523 7.035a8.673 8.673 0 00-.214 1.348c-.11 1.38-.333 1.602-1.753 1.618-.785 0-1.562-.008-2.347-.008-16.988 0-33.977 0-50.973.008-1.308 0-1.53-.143-1.69-1.46-.34-2.87-1.094-5.662-1.64-8.501-.81-4.14-1.563-8.296-2.325-12.452-.214-1.158.048-1.467 1.245-1.475 2.055-.016 4.109-.008 6.163-.008 8.407-.008 16.822-.008 25.236 0z" fill="#FCFDFC"/></g></svg>